<svg width="31" height="36" viewBox="0 0 31 36" fill="none" xmlns="http://www.w3.org/2000/svg">
<path d="M15.5 35.4285C17.944 35.4285 19.9265 33.446 19.9265 30.9999H11.0735C11.0735 33.446 13.056 35.4285 15.5 35.4285ZM30.4042 25.0691C29.0673 23.6326 26.5659 21.4716 26.5659 14.3928C26.5659 9.01627 22.796 4.71226 17.7129 3.65633V2.21428C17.7129 0.991582 16.722 0 15.5 0C14.278 0 13.2871 0.991582 13.2871 2.21428V3.65633C8.20395 4.71226 4.43414 9.01627 4.43414 14.3928C4.43414 21.4716 1.9327 23.6326 0.595827 25.0691C0.18065 25.5154 -0.00341197 26.0489 4.78414e-05 26.5713C0.00765943 27.7062 0.898215 28.7856 2.22125 28.7856H28.7788C30.1018 28.7856 30.993 27.7062 31 26.5713C31.0034 26.0489 30.8194 25.5147 30.4042 25.0691Z" fill="#221E71"/>
</svg>
