<svg width="16" height="16" viewBox="0 0 16 16" fill="none" xmlns="http://www.w3.org/2000/svg">
<path d="M0.320007 12.5174H9.60001V15.6425L11.52 14.4905L13.44 15.6425V12.5174H15.68V0.357422H0.320007V12.5174ZM12.8848 10.3459C12.856 10.375 12.8253 10.4019 12.7949 10.4291C12.7776 10.4445 12.7616 10.4608 12.7437 10.4755C12.7238 10.4921 12.7027 10.5062 12.6822 10.5219C12.4125 10.7283 12.0874 10.8656 11.7325 10.9049C11.7267 10.9056 11.721 10.9069 11.7149 10.9075C11.6506 10.9139 11.5853 10.9174 11.5194 10.9174C11.4534 10.9174 11.3882 10.9139 11.3238 10.9075C11.3181 10.9069 11.3123 10.9056 11.3062 10.9049C10.9514 10.8656 10.6266 10.7283 10.3565 10.5219C10.336 10.5062 10.3149 10.4918 10.295 10.4755C10.2774 10.4608 10.2611 10.4445 10.2438 10.4291C10.2134 10.4019 10.183 10.375 10.1539 10.3459C9.81121 9.99902 9.59873 9.52286 9.59873 8.99742C9.59873 7.93854 10.4598 7.07742 11.5187 7.07742C12.5776 7.07742 13.4387 7.93854 13.4387 8.99742C13.44 9.52254 13.2278 9.9987 12.8848 10.3459ZM12.8 14.5123L11.52 13.7443L10.24 14.5123V12.5174V11.215C10.2509 11.2214 10.263 11.2256 10.2742 11.2317C10.359 11.279 10.4464 11.3225 10.5366 11.3603C10.5405 11.3619 10.5446 11.3632 10.5488 11.3648C10.8486 11.4883 11.1763 11.5574 11.5203 11.5574C11.8643 11.5574 12.192 11.4883 12.4918 11.3648C12.4957 11.3632 12.4998 11.3619 12.504 11.3603C12.5942 11.3225 12.6816 11.2793 12.7664 11.2317C12.7776 11.2256 12.7898 11.2214 12.8006 11.215V12.5174V14.5123H12.8ZM0.960007 0.997422H15.04V11.8774H13.44V10.6851C13.8371 10.2339 14.08 9.64414 14.08 8.99742C14.08 7.5859 12.9315 6.43742 11.52 6.43742C10.1085 6.43742 8.96001 7.5859 8.96001 8.99742C8.96001 9.64414 9.20289 10.2339 9.60001 10.6851V11.8774H0.960007V0.997422Z" fill="black"/>
<path d="M12.16 2.27734H3.84003V2.91734H12.16V2.27734Z" fill="black"/>
<path d="M10.56 4.19751H5.44V4.83751H10.56V4.19751Z" fill="black"/>
<path d="M5.75999 9.95752H2.23999V10.5975H5.75999V9.95752Z" fill="black"/>
</svg>
