<svg width="18" height="19" viewBox="0 0 18 19" fill="none" xmlns="http://www.w3.org/2000/svg">
<path d="M8.15659 3.56543H2.59035C2.16857 3.56543 1.76405 3.73298 1.4658 4.03123C1.16755 4.32948 1 4.73399 1 5.15578V16.2882C1 16.71 1.16755 17.1145 1.4658 17.4128C1.76405 17.711 2.16857 17.8786 2.59035 17.8786H13.7228C14.1446 17.8786 14.5491 17.711 14.8474 17.4128C15.1456 17.1145 15.3132 16.71 15.3132 16.2882V10.722" stroke="black" stroke-width="2" stroke-linecap="round" stroke-linejoin="round"/>
<path d="M14.1203 2.37272C14.4367 2.05638 14.8657 1.87866 15.3131 1.87866C15.7605 1.87866 16.1895 2.05638 16.5059 2.37272C16.8222 2.68906 16.9999 3.11811 16.9999 3.56548C16.9999 4.01286 16.8222 4.44191 16.5059 4.75825L8.9517 12.3124L5.771 13.1076L6.56617 9.92689L14.1203 2.37272Z" stroke="black" stroke-width="2" stroke-linecap="round" stroke-linejoin="round"/>
</svg>
