<svg width="155" height="113" viewBox="0 0 155 113" fill="none" xmlns="http://www.w3.org/2000/svg">
<path d="M153.923 107.976V58.175C153.923 49.704 149.501 41.843 142.249 37.453L93.977 8.20999C86.262 3.53499 76.587 3.53499 68.873 8.20999L20.6 37.453C13.356 41.843 8.92603 49.703 8.92603 58.175V107.976H153.923Z" fill="#F7FAFF"/>
<path d="M141.689 92.92H139.64V90.872C139.64 90.522 139.364 90.246 139.014 90.246C138.665 90.246 138.388 90.522 138.388 90.872V92.921H136.616C136.267 92.921 135.99 93.197 135.99 93.547C135.99 93.897 136.267 94.173 136.616 94.173H138.388V96.221C138.388 96.571 138.665 96.847 139.014 96.847C139.364 96.847 139.64 96.571 139.64 96.221V94.173H141.689C142.039 94.173 142.315 93.896 142.315 93.547C142.315 93.197 142.039 92.921 141.689 92.921V92.92Z" fill="#C1C1C1"/>
<path d="M90.09 13.528C89.741 13.528 89.465 13.251 89.465 12.902V7.837C89.465 7.487 89.741 7.211 90.091 7.211C90.441 7.211 90.717 7.487 90.717 7.837V12.902C90.717 13.243 90.44 13.528 90.091 13.528H90.09Z" fill="#9BC6F9"/>
<path d="M92.7249 10.854H87.6599C87.3099 10.854 87.0339 10.577 87.0339 10.227C87.0339 9.87799 87.3109 9.60199 87.6599 9.60199H92.7249C93.0749 9.60199 93.3509 9.87799 93.3509 10.227C93.3509 10.577 93.1069 10.854 92.7249 10.854ZM147.445 69.532C147.201 69.532 146.997 69.361 146.957 69.117C146.363 65.93 146.022 65.548 142.794 64.955C142.551 64.922 142.38 64.711 142.38 64.467C142.38 64.223 142.551 64.02 142.794 63.979C145.981 63.386 146.363 63.044 146.957 59.817C146.989 59.573 147.201 59.402 147.445 59.402C147.688 59.402 147.892 59.573 147.932 59.817C148.526 63.004 148.867 63.386 152.095 63.979C152.339 64.012 152.509 64.223 152.509 64.467C152.509 64.711 152.339 64.914 152.095 64.955C148.908 65.548 148.526 65.89 147.932 69.117C147.9 69.353 147.688 69.532 147.445 69.532ZM145.054 64.426C146.339 64.874 146.997 65.532 147.445 66.816C147.892 65.532 148.558 64.874 149.835 64.426C148.55 63.979 147.892 63.313 147.445 62.036C146.997 63.353 146.339 64.012 145.054 64.426Z" fill="#9BC6F9"/>
<path d="M28.99 12.137C28.746 12.137 28.575 11.999 28.502 11.755C27.535 8.219 26.835 7.528 23.299 6.552C23.088 6.479 22.917 6.276 22.917 6.065C22.917 5.821 23.055 5.65 23.299 5.577C26.835 4.609 27.526 3.91 28.502 0.374C28.575 0.171 28.787 0 28.99 0C29.201 0 29.404 0.138 29.478 0.382C30.445 3.918 31.144 4.609 34.68 5.585C34.892 5.658 35.063 5.861 35.063 6.073C35.063 6.317 34.924 6.487 34.68 6.56C31.144 7.528 30.453 8.227 29.477 11.763C29.404 11.999 29.201 12.137 28.99 12.137ZM25.145 6.065C27.291 6.829 28.234 7.764 28.99 9.91C29.754 7.764 30.689 6.82 32.835 6.065C30.689 5.3 29.745 4.365 28.99 2.219C28.226 4.366 27.29 5.309 25.145 6.065ZM4.439 50.94H0.902C0.415 50.94 0 50.557 0 50.037C0 49.549 0.382 49.135 0.902 49.135H4.44C4.927 49.135 5.342 49.517 5.342 50.037C5.31 50.557 4.927 50.94 4.44 50.94H4.439ZM11.235 50.94H7.698C7.21 50.94 6.796 50.557 6.796 50.037C6.796 49.549 7.178 49.135 7.698 49.135H11.235C11.722 49.135 12.137 49.517 12.137 50.037C12.137 50.557 11.722 50.94 11.235 50.94ZM6.064 56.142C5.577 56.142 5.162 55.76 5.162 55.239V51.703C5.162 51.215 5.544 50.801 6.064 50.801C6.552 50.801 6.967 51.183 6.967 51.703V55.239C6.934 55.727 6.552 56.142 6.064 56.142ZM6.064 49.347C5.577 49.347 5.162 48.965 5.162 48.445V44.908C5.162 44.42 5.544 44.006 6.064 44.006C6.552 44.006 6.967 44.388 6.967 44.908V48.445C6.934 48.932 6.552 49.347 6.064 49.347Z" fill="#B3BAC5"/>
<path d="M125.113 46.614V104.009C125.113 104.781 124.796 105.472 124.292 105.952C123.812 106.407 123.145 106.7 122.43 106.7H40.3629C39.6469 106.7 38.9809 106.431 38.5009 105.952C37.9969 105.472 37.6479 104.757 37.6479 104.009V46.614L81.3759 21.438L125.113 46.615V46.614Z" fill="#F7FAFF"/>
<path d="M125.113 46.614V104.009C125.113 104.781 124.796 105.472 124.292 105.952C123.812 106.407 123.145 106.7 122.43 106.7H40.3629C39.6469 106.7 38.9809 106.431 38.5009 105.952C37.9969 105.472 37.6479 104.757 37.6479 104.009V46.614L81.3759 21.438L125.113 46.615V46.614Z" stroke="#003B99" stroke-width="2.764" stroke-miterlimit="10" stroke-linecap="round"/>
<path d="M112.886 77.19H49.8831V24.55C49.8831 21.623 52.2731 19.233 55.1991 19.233H98.3191L112.886 34.07V77.188V77.19Z" fill="white"/>
<path d="M113.472 34.892L98.847 20.267C98.611 20.032 98.286 19.975 97.969 20.08C97.676 20.21 97.465 20.503 97.465 20.828V31.462C97.465 34.096 99.619 36.25 102.253 36.25H112.886C113.204 36.25 113.496 36.063 113.634 35.746C113.764 35.477 113.683 35.136 113.472 34.892Z" fill="#D3DEEA"/>
<path d="M65.1501 19.234H98.3181L112.886 34.071V77.189H49.8831V24.551C49.8831 21.624 52.2731 19.234 55.1991 19.234M59.4191 19.234H60.9311H59.4191Z" stroke="#003B99" stroke-width="2.764" stroke-miterlimit="10" stroke-linecap="round"/>
<path d="M124.853 45.794L90.879 73.206H71.921L38.444 46.322C37.997 45.899 37.647 101.619 37.647 101.619C37.647 102.708 38.103 103.773 38.899 104.545C39.647 105.261 40.631 105.659 41.663 105.659L121.097 105.391C122.137 105.391 123.121 104.993 123.861 104.277C124.657 103.529 125.113 102.472 125.113 101.351C125.113 101.359 125.511 45.208 124.853 45.794Z" fill="#D3DEEA"/>
<path d="M125.113 77.164V103.991C125.113 104.764 124.796 105.455 124.292 105.934C123.813 106.39 123.146 106.682 122.431 106.682H40.339C39.624 106.682 38.981 106.414 38.477 105.934C37.973 105.455 37.657 104.739 37.657 103.991V77.164H125.113Z" fill="white"/>
<path d="M124.316 77.986V100.261C124.316 100.79 124.104 101.269 123.731 101.643C123.381 101.993 122.909 102.172 122.43 102.172H40.338C39.858 102.172 39.378 101.985 39.038 101.643C38.72 101.326 38.509 100.928 38.452 100.472V104.009C38.452 104.537 38.664 105.017 39.038 105.391C39.387 105.732 39.858 105.919 40.338 105.919H122.43C122.909 105.919 123.389 105.732 123.731 105.391C124.104 105.017 124.316 104.537 124.316 104.009V77.986Z" fill="#D3DEEA"/>
<path d="M125.113 77.164V103.991C125.113 104.764 124.796 105.455 124.292 105.934C123.813 106.39 123.146 106.682 122.431 106.682H40.339C39.624 106.682 38.981 106.414 38.477 105.934C37.973 105.455 37.657 104.739 37.657 103.991V77.164H125.113Z" stroke="#003B99" stroke-width="2.764" stroke-miterlimit="10" stroke-linecap="round"/>
<path d="M71.304 77.109L38.5 105.952C37.996 105.473 37.647 104.757 37.647 104.009V46.615L71.303 77.11L71.304 77.109ZM91.481 77.109L124.284 105.977C124.788 105.497 125.105 104.782 125.105 104.034V46.615L91.481 77.11V77.109Z" fill="#E5EFFF"/>
<path d="M71.304 77.108L39.054 105.464C38.712 105.765 38.1919 105.667 37.9729 105.269C37.7689 104.887 37.6479 104.456 37.6479 104.009V46.712C37.6479 46.672 37.696 46.655 37.721 46.679L71.304 77.109V77.108ZM91.481 77.108L123.341 105.147C123.943 105.675 124.894 105.358 125.056 104.578C125.097 104.399 125.113 104.22 125.113 104.033V46.712C125.113 46.672 125.064 46.655 125.04 46.679L91.481 77.11V77.108Z" stroke="#003B99" stroke-width="2.764" stroke-miterlimit="10" stroke-linecap="round"/>
<path d="M112.886 33.86H102.252C100.049 33.86 98.261 32.079 98.261 29.868V19.234L112.886 33.859V33.86Z" fill="#F0F6FF"/>
<path d="M86.3509 45.492C85.9209 44.956 85.4009 44.5 84.8149 44.142C84.7339 40.501 84.5219 30.892 84.5789 30.087C84.5959 29.932 84.5789 29.777 84.5299 29.631C84.4819 29.485 84.4089 29.347 84.3029 29.233C83.9859 28.933 83.5709 28.753 83.1329 28.737C82.6119 28.713 80.4979 28.713 80.4729 29.111C80.3929 30.29 80.4089 30.566 80.3759 31.046C80.3269 31.778 81.4489 32.144 81.5959 32.574C81.6609 32.721 81.6859 32.875 81.6609 33.038C81.6359 33.192 81.5709 33.338 81.4659 33.461C81.1239 33.737 80.7579 33.997 80.3839 34.225C80.2379 34.363 80.1239 34.525 80.0429 34.712C79.9699 34.899 79.9289 35.102 79.9369 35.298C79.8969 35.46 79.8969 35.631 79.9369 35.794C79.9769 35.956 80.0509 36.111 80.1489 36.249C80.4659 36.615 81.4329 36.607 81.3839 37.354C81.3349 38.094 80.1889 37.989 79.8069 38.428C79.6449 38.688 79.5469 38.98 79.5069 39.289C79.4739 39.599 79.5069 39.907 79.6039 40.192C79.7739 40.484 80.8799 40.631 81.1239 41.062C81.2139 41.346 81.1889 41.663 81.0589 41.932C80.9049 42.142 79.7829 42.59 79.6289 42.802C79.4659 43.142 79.3519 43.5 79.2949 43.866C78.4329 44.167 77.6529 44.646 76.9949 45.273C74.1819 47.833 73.8559 52.044 76.2629 54.687C78.6689 57.329 83.2629 57.833 86.0259 55.223C89.0659 52.378 88.7579 48.134 86.3509 45.493V45.492ZM79.7419 53.223C79.4979 52.971 79.3359 52.646 79.2789 52.297C79.2219 51.947 79.2629 51.589 79.4089 51.272C79.5549 50.947 79.7909 50.679 80.0919 50.492C80.3919 50.305 80.7419 50.215 81.0919 50.224C81.4419 50.24 81.7819 50.354 82.0749 50.557C82.3599 50.76 82.5789 51.053 82.7009 51.386C82.8229 51.719 82.8399 52.077 82.7579 52.418C82.6769 52.76 82.4899 53.068 82.2299 53.313C82.0599 53.467 81.8639 53.589 81.6439 53.67C81.4249 53.752 81.1969 53.792 80.9699 53.784C80.7419 53.776 80.5139 53.719 80.3029 53.63C80.0829 53.524 79.8969 53.394 79.7429 53.223H79.7419Z" fill="#9BC6F9"/>
<path d="M72.9869 66.784C73.9869 66.784 74.7999 65.971 74.7999 64.971C74.7999 63.971 73.9869 63.158 72.9869 63.158C71.9869 63.158 71.174 63.971 71.174 64.971C71.174 65.979 71.9869 66.784 72.9869 66.784Z" fill="#393E46"/>
<path d="M72.986 66.523C73.84 66.523 74.539 65.833 74.539 64.971C74.539 64.117 73.848 63.418 72.986 63.418C72.133 63.418 71.434 64.109 71.434 64.971C71.434 65.832 72.124 66.523 72.986 66.523Z" stroke="#393E46" stroke-width="1.889"/>
<path d="M78.67 66.784C79.67 66.784 80.482 65.971 80.482 64.971C80.482 63.971 79.669 63.158 78.669 63.158C77.669 63.158 76.856 63.971 76.856 64.971C76.865 65.979 77.669 66.784 78.669 66.784H78.67Z" fill="#393E46"/>
<path d="M78.669 66.523C79.522 66.523 80.222 65.833 80.222 64.971C80.222 64.117 79.531 63.418 78.669 63.418C77.815 63.418 77.116 64.109 77.116 64.971C77.116 65.832 77.816 66.523 78.669 66.523Z" stroke="#393E46" stroke-width="1.889"/>
<path d="M84.36 66.784C85.36 66.784 86.173 65.971 86.173 64.971C86.173 63.971 85.36 63.158 84.36 63.158C83.36 63.158 82.547 63.971 82.547 64.971C82.547 65.979 83.36 66.784 84.36 66.784Z" fill="#393E46"/>
<path d="M84.36 66.523C85.213 66.523 85.912 65.833 85.912 64.971C85.912 64.117 85.222 63.418 84.359 63.418C83.498 63.418 82.807 64.109 82.807 64.971C82.807 65.832 83.497 66.523 84.359 66.523H84.36Z" stroke="#393E46" stroke-width="1.889"/>
<path d="M90.042 66.784C91.042 66.784 91.855 65.971 91.855 64.971C91.855 63.971 91.042 63.158 90.042 63.158C89.042 63.158 88.229 63.971 88.229 64.971C88.238 65.979 89.042 66.784 90.042 66.784Z" fill="#393E46"/>
<path d="M90.042 66.523C90.896 66.523 91.595 65.833 91.595 64.971C91.595 64.117 90.904 63.418 90.042 63.418C89.188 63.418 88.489 64.109 88.489 64.971C88.489 65.832 89.189 66.523 90.042 66.523Z" stroke="#393E46" stroke-width="1.889"/>
<path d="M7.6499 110.879H131.584H7.6499ZM135.657 110.879H136.348H135.657ZM140.429 110.879H154.761H140.429ZM112.545 33.86H101.578C99.6349 33.86 98.0659 32.282 98.0659 30.348V19.373C98.0659 19.324 98.3179 19.275 98.3509 19.316L112.586 33.762C112.618 33.794 112.594 33.86 112.545 33.86Z" stroke="#003B99" stroke-width="2.764" stroke-miterlimit="10" stroke-linecap="round"/>
</svg>
