<svg width="148" height="88" viewBox="0 0 148 88" fill="none" xmlns="http://www.w3.org/2000/svg">
<path d="M139.98 35.5805C139.642 35.5805 139.53 35.4676 139.417 35.1286C138.291 30.9486 137.391 30.0449 133.226 28.9151C133.001 28.8022 132.776 28.5762 132.776 28.3503C132.776 28.0113 132.888 27.8984 133.226 27.7854C137.391 26.6557 138.291 25.7519 139.417 21.5719C139.53 21.3459 139.755 21.12 139.98 21.12C140.205 21.12 140.43 21.233 140.543 21.5719C141.668 25.7519 142.569 26.6557 146.734 27.7854C146.959 27.8984 147.184 28.1243 147.184 28.3503C147.184 28.6892 147.071 28.8022 146.734 28.9151C142.569 30.1578 141.668 30.9486 140.543 35.1286C140.43 35.4676 140.205 35.5805 139.98 35.5805ZM135.477 28.3503C138.066 29.254 139.192 30.3838 139.98 32.9822C140.88 30.3838 142.006 29.254 144.482 28.3503C141.893 27.4465 140.768 26.3168 139.98 23.7184C139.079 26.3168 137.954 27.4465 135.477 28.3503ZM110.938 81.7865H106.661C106.098 81.7865 105.648 81.3346 105.648 80.6567C105.648 80.0919 106.098 79.527 106.661 79.527H110.826C111.389 79.527 111.839 79.9789 111.839 80.6567C111.952 81.3346 111.501 81.7865 110.938 81.7865ZM118.93 81.7865H114.766C114.203 81.7865 113.753 81.3346 113.753 80.6567C113.753 80.0919 114.203 79.527 114.766 79.527H118.93C119.493 79.527 119.944 79.9789 119.944 80.6567C120.056 81.3346 119.493 81.7865 118.93 81.7865ZM112.852 88C112.289 88 111.839 87.5481 111.839 86.8703V82.6903C111.839 82.1254 112.289 81.5605 112.852 81.5605C113.415 81.5605 113.865 82.0124 113.865 82.6903V86.8703C113.865 87.5481 113.415 88 112.852 88ZM112.852 79.8659C112.289 79.8659 111.839 79.414 111.839 78.7362V74.5562C111.839 73.9913 112.289 73.4265 112.852 73.4265C113.415 73.4265 113.865 73.8784 113.865 74.5562V78.7362C113.865 79.414 113.415 79.8659 112.852 79.8659Z" fill="#221E71"/>
<path d="M34.3799 14.4605C34.0422 14.4605 33.9296 14.3476 33.8171 14.0086C32.6914 9.82865 31.7909 8.92486 27.6261 7.79513C27.401 7.68216 27.1758 7.45622 27.1758 7.23027C27.1758 6.89135 27.2884 6.77838 27.6261 6.6654C31.7909 5.53568 32.6914 4.63189 33.8171 0.451892C33.9296 0.225946 34.1548 0 34.3799 0C34.605 0 34.8302 0.112973 34.9427 0.451892C36.0684 4.63189 36.9689 5.53568 41.1337 6.6654C41.3588 6.77838 41.584 7.00432 41.584 7.23027C41.584 7.56919 41.4714 7.68216 41.1337 7.79513C36.9689 9.03784 36.0684 9.82865 34.9427 14.0086C34.8302 14.3476 34.605 14.4605 34.3799 14.4605ZM29.8774 7.23027C32.4663 8.13405 33.592 9.26378 34.3799 11.8622C35.2804 9.26378 36.406 8.13405 38.8824 7.23027C36.2935 6.32649 35.1678 5.19676 34.3799 2.59838C33.4794 5.19676 32.3538 6.32649 29.8774 7.23027ZM5.33847 60.6665H1.06105C0.498228 60.6665 0.0479736 60.2146 0.0479736 59.5368C0.0479736 58.9719 0.498228 58.407 1.06105 58.407H5.2259C5.78872 58.407 6.23898 58.8589 6.23898 59.5368C6.35154 60.2146 5.90129 60.6665 5.33847 60.6665ZM13.3305 60.6665H9.16563C8.60281 60.6665 8.15256 60.2146 8.15256 59.5368C8.15256 58.9719 8.60281 58.407 9.16563 58.407H13.3305C13.8933 58.407 14.3436 58.8589 14.3436 59.5368C14.4561 60.2146 13.8933 60.6665 13.3305 60.6665ZM7.25205 66.88C6.68923 66.88 6.23898 66.4281 6.23898 65.7503V61.5703C6.23898 61.0054 6.68923 60.4405 7.25205 60.4405C7.81487 60.4405 8.26512 60.8924 8.26512 61.5703V65.7503C8.26512 66.4281 7.81487 66.88 7.25205 66.88ZM7.25205 58.7459C6.68923 58.7459 6.23898 58.294 6.23898 57.6162V53.4362C6.23898 52.8713 6.68923 52.3065 7.25205 52.3065C7.81487 52.3065 8.26512 52.7584 8.26512 53.4362V57.6162C8.26512 58.294 7.81487 58.7459 7.25205 58.7459Z" fill="#221E71"/>
<path d="M32.432 46.0681C32.6942 33.3769 37.5004 22.8588 47.2878 14.6877C52.6184 10.2545 58.7354 7.47282 65.5516 6.25585C68.6101 5.73429 71.7561 5.47351 74.902 5.73429C86.2623 6.4297 95.7 11.2107 103.128 19.9033C107.497 25.032 110.381 30.9429 111.779 37.5494C112.304 39.8964 112.566 42.2434 112.653 44.5904C113.003 53.4569 110.731 61.628 105.75 68.9298C99.7198 77.7094 91.4181 83.3596 80.8443 85.7066C77.6984 86.402 74.5524 86.6628 71.3191 86.5759C62.6678 86.2281 54.803 83.4465 47.9869 78.0571C40.3842 72.1461 35.5779 64.4096 33.3933 55.0216C32.6942 52.0661 32.432 49.1106 32.432 46.0681ZM100.943 66.4959C100.943 66.4089 100.943 66.322 100.856 66.2351C99.0207 58.4986 97.273 50.8491 95.4379 43.1126C93.6028 35.2893 91.7676 27.4659 89.9325 19.6425C89.4956 17.904 89.146 16.2524 88.7091 14.5139C88.5343 13.3838 87.7478 12.9492 86.6118 13.21C85.3884 13.4707 84.165 13.8184 82.9416 14.0792C70.62 16.9478 58.2985 19.7294 45.977 22.598C44.8409 22.8588 44.3166 23.6411 44.5788 24.7712C46.2391 31.8122 47.8995 38.8533 49.5598 45.8943C51.2202 53.1092 52.9679 60.411 54.6282 67.6259C55.3273 70.5814 56.0264 73.5369 56.7255 76.4924C56.9877 77.4486 57.6868 77.8832 58.648 77.7094C62.6678 76.7532 66.6876 75.8839 70.62 74.9277C78.6596 73.1023 86.6992 71.1899 94.7388 69.3644C96.3117 69.0167 97.8847 68.669 99.5451 68.2344C100.419 67.9736 100.943 67.3651 100.943 66.4959Z" fill="#221E71"/>
<path d="M100.72 66.8052C100.72 67.5977 100.196 68.3021 99.4098 68.4782C97.8375 68.8304 96.2652 69.1827 94.6055 69.6229C86.5693 71.4721 78.533 73.4093 70.4968 75.2585C66.4787 76.2271 62.4606 77.1076 58.5298 78.0762C57.5689 78.3404 56.7828 77.8121 56.6081 76.8435C55.9093 73.8496 55.2105 70.8557 54.5117 67.8618C52.852 60.5533 51.105 53.1566 49.4453 45.848C47.7857 38.7156 46.126 31.5831 44.4664 24.4506C44.2043 23.3059 44.7284 22.5134 45.864 22.2493C58.1804 19.3435 70.4968 16.5257 82.8132 13.6199C84.0361 13.3557 85.259 13.0035 86.4819 12.7393C87.6175 12.4751 88.3163 13.0035 88.5783 14.0601C89.0151 15.8212 89.3645 17.4943 89.8012 19.2554C91.6356 27.1804 93.4699 35.1053 95.3043 43.0303C97.1387 50.8672 98.8857 58.616 100.72 66.4529C100.633 66.7171 100.633 66.8052 100.72 66.8052ZM61.4997 27.0923C61.325 27.0923 61.325 27.0923 61.2376 27.0923C59.2286 27.5326 57.2195 28.0609 55.2978 28.5012C55.2105 28.5012 55.0358 28.7654 55.0358 28.9415C55.5599 31.1428 56.084 33.3442 56.5207 35.5456C56.6081 35.8978 56.6954 35.9859 57.0448 35.8978C58.9665 35.4575 60.9756 35.0173 62.8973 34.4889C63.1594 34.4009 63.3341 34.3128 63.2467 33.9606C62.7226 31.7592 62.1985 29.5578 61.6744 27.3565C61.6744 27.2684 61.4997 27.1804 61.4997 27.0923ZM58.8792 43.9989C59.0539 44.7033 59.2286 45.3197 59.3159 45.9361C59.6653 47.5211 60.0147 49.1941 60.4515 50.7791C60.5388 50.9552 60.5388 51.2194 60.8882 51.1314C62.8973 50.6911 64.9064 50.1627 66.9154 49.7225C67.1775 49.6344 67.2648 49.5464 67.1775 49.2822C66.6534 47.0808 66.1293 44.9675 65.6925 42.7661C65.6052 42.4139 65.4305 42.3258 65.0811 42.4139C64.557 42.59 63.9455 42.6781 63.4214 42.7661C62.0238 43.1183 60.7135 43.3825 59.3159 43.7347C59.1412 43.8228 58.9665 43.9989 58.8792 43.9989ZM71.1956 65.2202C71.1956 65.0441 71.1956 64.956 71.1956 64.956C70.6715 62.7546 70.1474 60.4652 69.6233 58.2638C69.5359 57.9997 69.4486 57.9997 69.1865 57.9997C67.2648 58.4399 65.2558 58.8802 63.3341 59.4085C62.9847 59.4966 62.8973 59.5846 62.9847 59.9369C63.4214 61.786 63.8582 63.7232 64.2949 65.5724C64.557 66.8052 64.6443 66.8932 65.8672 66.541C67.5269 66.1888 69.1865 65.7485 70.7588 65.3963C70.9335 65.4843 71.1082 65.3082 71.1956 65.2202ZM66.7407 44.3511C71.1956 43.2064 75.5631 42.0617 80.018 40.917C79.9306 40.6528 79.9306 40.4767 79.8433 40.3006C75.3884 41.4453 71.0209 42.59 66.566 43.7347C66.566 43.9108 66.6534 44.0869 66.7407 44.3511ZM62.7226 29.2937C62.8973 29.2937 62.9847 29.2937 63.072 29.2056C67.2648 28.149 71.3703 27.0923 75.5631 26.0356C76.0872 25.8595 76.0872 25.8595 75.8252 25.3312C75.7378 25.3312 75.6505 25.3312 75.5631 25.3312C71.3703 26.3879 67.1775 27.4445 62.9847 28.5012C62.4606 28.7654 62.6353 28.9415 62.7226 29.2937ZM63.072 30.7026C67.5269 29.5578 71.8944 28.4131 76.3493 27.3565C76.2619 26.652 76.2619 26.652 75.7378 26.8281C72.0691 27.7967 68.4004 28.6773 64.7317 29.6459C64.1202 29.822 63.5961 29.9101 62.9847 30.0862C62.9847 30.3503 63.072 30.5265 63.072 30.7026ZM70.3221 58.3519C74.777 57.2072 79.2318 56.0624 83.5993 55.0058C83.5993 54.4774 83.4246 54.3894 82.9879 54.4774C79.4939 55.358 75.9125 56.2386 72.4185 57.2072C71.7197 57.3833 70.9335 57.5594 70.2347 57.8235C70.2347 57.9116 70.2347 58.0877 70.3221 58.3519ZM66.3913 42.9422C70.8462 41.7975 75.2137 40.6528 79.5812 39.5961C79.5812 39.0678 79.4065 38.8917 78.9698 39.0678C74.8643 40.1245 70.7588 41.1811 66.566 42.2378C66.1293 42.3258 66.1293 42.5019 66.3913 42.9422ZM67.0901 45.6719C69.0118 45.1436 71.0209 44.7033 72.9426 44.175C75.2137 43.5586 77.5722 43.0303 79.8433 42.4139C80.1053 42.3258 80.4547 42.3258 80.1927 41.8856C80.1053 41.7975 79.8433 41.7095 79.6686 41.7975C75.5631 42.8542 71.4576 43.9108 67.3522 44.8794C66.9154 45.0555 66.8281 45.2317 67.0901 45.6719ZM75.5631 23.9223C71.1082 25.067 66.6534 26.2118 62.2859 27.2684C62.2859 27.7967 62.4606 27.9729 62.9847 27.7967C66.9154 26.7401 70.8462 25.7715 74.6896 24.8029C75.039 24.7148 75.3884 24.6268 75.7378 24.5387C75.6505 24.3626 75.6505 24.1865 75.5631 23.9223ZM83.774 55.7102C83.6867 55.7102 83.5993 55.7102 83.5993 55.7102C79.4065 56.7669 75.1264 57.8235 70.9335 58.9683C70.6715 59.0563 70.4968 59.1444 70.5841 59.4085C70.6715 59.6727 70.8462 59.6727 71.1082 59.5846C74.9517 58.616 78.7077 57.6474 82.5511 56.6788C82.9879 56.5908 83.512 56.4147 84.0361 56.3266C83.9487 56.0624 83.8614 55.8863 83.774 55.7102ZM84.2108 57.031C79.7559 58.1758 75.3011 59.3205 70.9335 60.4652C70.9335 60.9935 71.1082 61.0816 71.6323 60.9935C75.039 60.113 78.4457 59.2324 81.8523 58.3519C82.7258 58.1758 83.512 57.9116 84.4729 57.6474C84.2981 57.3833 84.2108 57.2072 84.2108 57.031Z" fill="white"/>
<path d="M61.4956 27.456C61.5851 27.5393 61.6746 27.6227 61.7642 27.7894C62.3013 29.873 62.8385 31.9567 63.3757 34.0403C63.4652 34.3737 63.3757 34.4571 63.0176 34.5404C61.0479 34.9571 58.9888 35.3739 57.0191 35.8739C56.661 35.9573 56.5715 35.8739 56.482 35.5406C55.9448 33.4569 55.4076 31.3733 54.96 29.2896C54.96 29.2063 55.0495 28.9562 55.2285 28.8729C57.2877 28.3728 59.3469 27.9561 61.3165 27.5393C61.3165 27.456 61.3165 27.456 61.4956 27.456ZM57.0191 32.4568C57.0191 32.5401 57.0191 32.5401 56.9296 32.6234C57.5563 33.1235 58.183 33.6236 58.8097 34.207C58.8992 33.957 58.9888 33.8736 59.0783 33.7069C59.6155 32.5401 60.1526 31.4566 60.6003 30.2898C60.8689 29.7063 60.8689 29.7063 60.1526 29.5396C60.0631 29.7063 59.9736 29.7897 59.884 29.9564C59.4364 30.7898 58.9888 31.5399 58.6306 32.3734C58.4516 32.7068 58.2725 32.7068 57.9144 32.7068C57.6458 32.6234 57.2877 32.5401 57.0191 32.4568Z" fill="#282866"/>
<path d="M59.184 43.9278C59.2725 43.8359 59.4497 43.652 59.6268 43.652C61.0441 43.2843 62.3727 43.0085 63.7899 42.6408C64.3214 42.5489 64.9414 42.3651 65.4729 42.2731C65.8272 42.1812 66.0044 42.2731 66.0929 42.6408C66.6244 44.939 67.0673 47.1452 67.5987 49.4433C67.6873 49.7191 67.5987 49.9029 67.333 49.9029C65.2958 50.3626 63.2585 50.9141 61.2212 51.3737C60.8669 51.4657 60.8669 51.1899 60.7783 51.006C60.424 49.3514 59.9811 47.6048 59.6268 45.9502C59.4497 45.3986 59.3611 44.7551 59.184 43.9278ZM63.0813 49.6272C63.1699 49.4433 63.2585 49.2595 63.3471 49.0756C63.8785 47.7887 64.41 46.5936 64.8529 45.3067C65.1186 44.7551 65.03 44.6632 64.3214 44.4793C63.8785 45.4905 63.3471 46.5017 62.9042 47.5129C62.727 47.9725 62.5499 48.1564 62.0184 47.9725C61.7527 47.8806 61.487 47.8806 61.1326 47.7887C61.1326 47.7887 61.1326 47.8806 61.0441 47.8806C61.8413 48.5241 62.4613 49.0756 63.0813 49.6272Z" fill="#282866"/>
<path d="M71.152 65.2527C71.0699 65.3452 70.9058 65.4376 70.7416 65.5301C69.1823 65.9 67.623 66.3623 66.1458 66.7322C64.9969 67.0096 64.9148 67.0096 64.6686 65.715C64.2582 63.7732 63.8479 61.7389 63.4376 59.797C63.3555 59.4271 63.4376 59.2422 63.7658 59.2422C65.5713 58.7798 67.4589 58.3175 69.2644 57.7627C69.5106 57.6702 69.5927 57.7627 69.6747 58.0401C70.1671 60.3518 70.6596 62.756 71.152 65.0678C71.152 65.0678 71.152 65.0678 71.152 65.2527ZM68.2796 59.9819C68.1975 60.1669 68.1154 60.2593 68.0334 60.4443C67.623 61.369 67.2127 62.2937 66.8024 63.2184C66.7203 63.4958 66.5561 63.5882 66.2279 63.4958C65.8996 63.4033 65.5713 63.3108 65.3251 63.3108L65.2431 63.4033C65.8175 63.9581 66.392 64.5129 66.9665 65.1602C67.0486 64.8828 67.1306 64.6979 67.2127 64.6054C67.7051 63.4033 68.1154 62.1087 68.6078 60.9066C68.9361 60.2593 68.9361 60.2593 68.2796 59.9819Z" fill="#282866"/>
<path d="M67.1017 44.352C67.0148 44.0765 67.0148 43.8929 66.928 43.7092C71.3577 42.5155 75.7005 41.3217 80.1303 40.128C80.2171 40.3116 80.2171 40.4953 80.304 40.7708C75.8743 41.9645 71.5314 43.1583 67.1017 44.352Z" fill="#282866"/>
<path d="M62.8476 29.568C62.6723 29.184 62.5847 28.896 63.0229 28.8C67.23 27.648 71.4372 26.496 75.6443 25.344C75.732 25.344 75.8196 25.344 75.9073 25.344C76.1702 25.92 76.1702 26.016 75.6443 26.112C71.4372 27.264 67.3177 28.416 63.1105 29.568C63.1105 29.568 63.0229 29.568 62.8476 29.568Z" fill="#282866"/>
<path d="M62.8788 30.976C62.7914 30.7887 62.7914 30.6014 62.704 30.3205C63.316 30.1333 63.9279 29.946 64.4525 29.8524C68.1243 28.8224 71.7962 27.886 75.468 26.856C76.08 26.6688 76.08 26.6688 76.08 27.4178C71.7962 28.5415 67.3375 29.7587 62.8788 30.976Z" fill="#282866"/>
<path d="M70.6226 58.432C70.5353 58.1525 70.5353 57.9662 70.448 57.7798C71.2338 57.5935 71.9324 57.314 72.6309 57.1277C76.1235 56.196 79.7034 55.2643 83.1961 54.2395C83.6326 54.1463 83.8946 54.2395 83.8073 54.7985C79.5288 56.0097 75.0757 57.2208 70.6226 58.432Z" fill="#282866"/>
<path d="M66.3952 42.944C66.1346 42.4782 66.1346 42.2918 66.6558 42.1055C70.7389 40.9875 74.8219 39.8695 78.9919 38.7515C79.4263 38.6583 79.6 38.7515 79.6 39.3105C75.1694 40.6148 70.8257 41.7328 66.3952 42.944Z" fill="#282866"/>
<path d="M67.0757 45.76C66.813 45.28 66.9006 45.088 67.3385 44.896C71.4541 43.744 75.5698 42.592 79.6855 41.536C79.8607 41.536 80.1234 41.536 80.2109 41.632C80.4736 42.112 80.1234 42.112 79.8607 42.208C77.5839 42.88 75.2196 43.456 72.9428 44.128C71.0163 44.704 69.0022 45.184 67.0757 45.76Z" fill="#282866"/>
<path d="M75.9063 23.936C75.9931 24.2218 75.9931 24.3171 76.08 24.6029C75.7326 24.6982 75.3851 24.7934 75.0377 24.8887C71.1291 25.9366 67.2206 27.0799 63.3988 28.1278C62.8777 28.2231 62.704 28.1278 62.704 27.5562C67.0468 26.413 71.4765 25.1745 75.9063 23.936Z" fill="#282866"/>
<path d="M83.6494 55.616C83.7367 55.8054 83.7367 55.9948 83.824 56.279C83.3003 56.4684 82.864 56.5631 82.3403 56.6578C78.5001 57.6997 74.7472 58.7415 70.9071 59.7834C70.7325 59.8781 70.558 59.8781 70.4707 59.5939C70.3834 59.2151 70.558 59.1204 70.8198 59.1204C75.0091 57.9838 79.2856 56.7525 83.4749 55.616C83.5622 55.616 83.5622 55.616 83.6494 55.616Z" fill="#282866"/>
<path d="M84.3554 57.024C84.4417 57.3035 84.4417 57.4898 84.528 57.6762C83.665 57.9557 82.802 58.142 81.9391 58.4215C78.5735 59.3532 75.2079 60.2848 71.8424 61.2165C71.4109 61.3097 71.152 61.2165 71.152 60.6575C75.5531 59.3532 79.868 58.2352 84.3554 57.024Z" fill="#282866"/>
<path d="M57.1542 32.736C57.4006 32.824 57.7293 32.824 57.9757 32.912C58.3043 33 58.4686 32.912 58.633 32.56C59.0437 31.68 59.4545 30.8 59.7831 30.008C59.8653 29.832 59.9474 29.744 60.0296 29.568C60.6868 29.744 60.6868 29.832 60.4404 30.36C59.9474 31.592 59.4545 32.736 59.0437 33.968C58.9616 34.144 58.9616 34.232 58.7973 34.496C58.2222 33.88 57.6471 33.352 57.072 32.824C57.072 32.912 57.1542 32.824 57.1542 32.736Z" fill="white"/>
<path d="M62.9718 49.28C62.4132 48.664 61.8546 48.136 61.296 47.608C61.296 47.608 61.296 47.52 61.3758 47.52C61.6152 47.52 61.9344 47.52 62.1738 47.696C62.5728 47.872 62.7324 47.696 62.9718 47.256C63.3708 46.288 63.8496 45.32 64.2486 44.352C64.887 44.528 64.887 44.616 64.7274 45.144C64.2486 46.376 63.7698 47.52 63.3708 48.752C63.1314 48.928 63.0516 49.104 62.9718 49.28Z" fill="white"/>
<path d="M68.365 59.84C69.1537 60.104 69.1537 60.104 68.8579 60.72C68.2664 61.864 67.7735 63.096 67.182 64.24C67.0834 64.416 66.9848 64.592 66.8862 64.768C66.0975 64.152 65.506 63.624 64.8159 63.096L64.9145 63.008C65.3088 63.096 65.7032 63.096 65.9989 63.184C66.3933 63.272 66.4919 63.184 66.689 62.92C67.182 62.04 67.6749 61.16 68.1678 60.28C68.1678 60.104 68.2664 59.928 68.365 59.84Z" fill="white"/>
</svg>
