<svg width="15" height="15" viewBox="0 0 15 15" fill="none" xmlns="http://www.w3.org/2000/svg">
<path d="M7.10938 0C3.18325 0 0 3.34693 0 7.47223C0 11.5999 3.18325 14.9445 7.10938 14.9445C11.0355 14.9445 14.2188 11.5999 14.2188 7.47223C14.2188 3.34693 11.0355 0 7.10938 0ZM7.10938 3.3143C7.77433 3.3143 8.31338 3.88086 8.31338 4.57975C8.31338 5.27865 7.77433 5.84521 7.10938 5.84521C6.44442 5.84521 5.90537 5.27865 5.90537 4.57975C5.90537 3.88086 6.44442 3.3143 7.10938 3.3143ZM8.71472 10.9673C8.71472 11.167 8.56069 11.3289 8.37072 11.3289H5.84803C5.65806 11.3289 5.50403 11.167 5.50403 10.9673V10.2442C5.50403 10.0445 5.65806 9.88263 5.84803 9.88263H6.19204V7.95431H5.84803C5.65806 7.95431 5.50403 7.79242 5.50403 7.59275V6.86963C5.50403 6.66996 5.65806 6.50807 5.84803 6.50807H7.68271C7.87269 6.50807 8.02671 6.66996 8.02671 6.86963V9.88263H8.37072C8.56069 9.88263 8.71472 10.0445 8.71472 10.2442V10.9673Z" fill="#656565"/>
</svg>
