<svg width="28" height="25" viewBox="0 0 28 25" fill="none" xmlns="http://www.w3.org/2000/svg">
<path d="M27.3926 13.6034C27.4251 12.9634 27.4888 10.6909 27.4563 10.5309C27.2001 9.41089 26.0488 8.61089 24.9288 8.61089H17.2488C17.3763 8.06715 17.4413 7.5234 17.5363 7.0434C17.8238 5.66715 18.1438 4.29089 18.4326 2.91604C18.5601 2.17979 18.3363 1.47604 17.8251 0.932302C17.4414 0.548552 16.4488 -0.0602114 16.3851 0.00481256C13.7614 2.65857 11.1688 5.28353 8.54515 7.90721C8.19263 8.25972 7.8414 8.61096 7.74515 9.12347C7.71265 9.31597 7.6814 9.50717 7.6814 9.69977V22.4034C7.6814 23.6197 8.6414 24.6759 9.82515 24.8359C9.88885 24.8359 9.95265 24.8684 10.0176 24.8684H21.5702C21.7302 24.8359 21.8902 24.8047 22.0502 24.7409C22.8177 24.5172 23.3302 24.0047 23.6502 23.2684C24.4502 21.3809 25.2177 19.4921 26.0177 17.6048C26.434 16.6122 26.8815 15.621 27.2652 14.5973C27.329 14.3073 27.3927 13.9548 27.3927 13.6035L27.3926 13.6034Z" fill="#24C779"/>
<path d="M6.36763 9.89062H6.08013H1.56749H0V23.9706H6.4C6.3675 19.0742 6.3675 14.8506 6.3675 9.89062H6.36763Z" fill="#24C779"/>
</svg>
