<svg width="155" height="113" viewBox="0 0 155 113" fill="none" xmlns="http://www.w3.org/2000/svg">
<path d="M153.976 107.976V58.1709C153.976 49.6999 149.553 41.8379 142.301 37.4479L94.0248 8.19595C86.3088 3.52095 76.6348 3.52095 68.9188 8.19595L20.6428 37.4559C13.3988 41.8459 8.96777 49.7079 8.96777 58.1789V107.984H153.976V107.976Z" fill="#F7FAFF"/>
<path d="M145.065 95.0581H143.017V93.0081C143.017 92.6591 142.74 92.3831 142.391 92.3831C142.041 92.3831 141.765 92.6591 141.765 93.0091V95.0581H139.992C139.643 95.0581 139.366 95.3341 139.366 95.6841C139.366 96.0341 139.643 96.3101 139.992 96.3101H141.765V98.3581C141.765 98.7081 142.041 98.9841 142.391 98.9841C142.74 98.9841 143.017 98.7081 143.017 98.3581V96.3101H145.065C145.415 96.3101 145.691 96.0331 145.691 95.6841C145.691 95.3341 145.415 95.0581 145.065 95.0581Z" fill="#C1C1C1"/>
<path d="M90.0982 13.5281C89.7482 13.5281 89.4722 13.2521 89.4722 12.9021V7.83706C89.4722 7.48706 89.7482 7.21106 90.0982 7.21106C90.4482 7.21106 90.7242 7.48706 90.7242 7.83706V12.9021C90.7242 13.2431 90.4472 13.5281 90.0982 13.5281Z" fill="#9BC6F9"/>
<path d="M92.732 10.8541H87.667C87.317 10.8541 87.041 10.5771 87.041 10.2281C87.041 9.87805 87.317 9.60205 87.667 9.60205H92.732C93.082 9.60205 93.358 9.87805 93.358 10.2281C93.358 10.5781 93.114 10.8541 92.732 10.8541ZM147.456 69.5361C147.212 69.5361 147.009 69.3661 146.968 69.1221C146.374 65.9351 146.033 65.552 142.805 64.959C142.561 64.927 142.391 64.715 142.391 64.4711C142.391 64.2271 142.561 64.0241 142.805 63.9831C145.992 63.3901 146.374 63.049 146.968 59.821C147 59.577 147.212 59.406 147.456 59.406C147.7 59.406 147.903 59.577 147.943 59.821C148.537 63.008 148.878 63.39 152.106 63.9841C152.35 64.0161 152.521 64.2271 152.521 64.4711C152.521 64.715 152.35 64.918 152.106 64.959C148.919 65.5531 148.537 65.8941 147.943 69.1221C147.911 69.3581 147.7 69.5361 147.456 69.5361ZM145.065 64.431C146.35 64.878 147.009 65.536 147.456 66.821C147.903 65.536 148.569 64.878 149.846 64.431C148.561 63.9841 147.903 63.3171 147.456 62.041C147.009 63.3581 146.35 64.016 145.065 64.431Z" fill="#9BC6F9"/>
<path d="M28.992 12.138C28.748 12.138 28.577 12 28.504 11.756C27.537 8.22 26.838 7.528 23.301 6.553C23.09 6.48 22.919 6.276 22.919 6.065C22.919 5.821 23.057 5.65 23.301 5.577C26.838 4.61 27.529 3.911 28.504 0.374C28.577 0.171 28.789 0 28.992 0C29.203 0 29.407 0.138 29.48 0.382C30.447 3.919 31.147 4.61 34.683 5.585C34.895 5.659 35.065 5.862 35.065 6.073C35.065 6.317 34.927 6.488 34.683 6.561C31.147 7.528 30.456 8.228 29.48 11.764C29.407 12 29.203 12.138 28.992 12.138ZM25.147 6.065C27.293 6.829 28.236 7.765 28.992 9.911C29.756 7.764 30.692 6.821 32.838 6.065C30.691 5.301 29.748 4.365 28.992 2.22C28.228 4.366 27.292 5.309 25.147 6.065ZM4.439 50.944H0.902C0.415 50.944 0 50.561 0 50.041C0 49.553 0.382 49.139 0.902 49.139H4.44C4.928 49.139 5.342 49.521 5.342 50.041C5.31 50.561 4.928 50.944 4.44 50.944H4.439ZM11.236 50.944H7.699C7.212 50.944 6.797 50.561 6.797 50.041C6.797 49.553 7.179 49.139 7.699 49.139H11.236C11.724 49.139 12.138 49.521 12.138 50.041C12.138 50.561 11.724 50.944 11.236 50.944ZM6.065 56.146C5.577 56.146 5.162 55.764 5.162 55.244V51.707C5.162 51.219 5.544 50.805 6.065 50.805C6.552 50.805 6.967 51.187 6.967 51.707V55.244C6.934 55.731 6.552 56.146 6.065 56.146ZM6.065 49.35C5.577 49.35 5.162 48.967 5.162 48.447V44.91C5.162 44.422 5.544 44.008 6.065 44.008C6.552 44.008 6.967 44.39 6.967 44.91V48.447C6.934 48.935 6.552 49.349 6.065 49.349V49.35Z" fill="#B3BAC5"/>
<path d="M124.504 105.74H34.1142C32.7402 105.74 31.6582 104.618 31.6582 103.285V35.431C31.6582 33.341 33.3492 31.651 35.4382 31.651H123.227C125.317 31.651 127.008 33.341 127.008 35.431V103.276C126.967 104.659 125.878 105.74 124.504 105.74Z" fill="white"/>
<path d="M31.6499 67.863V66.326M31.6499 62.276V35.415C31.6499 33.333 33.3329 31.65 35.4149 31.65H123.236C125.317 31.65 127 33.333 127 35.415V101.976C127 104.057 125.317 105.74 123.236 105.74H35.4149C33.3329 105.74 31.6499 104.057 31.6499 101.976V71.65V62.276Z" stroke="#003B99" stroke-width="2.764" stroke-miterlimit="10" stroke-linecap="round"/>
<path d="M113.252 68.87C113.252 73.08 109.837 76.495 105.626 76.495H46.9761C42.7641 76.495 39.3501 73.081 39.3501 68.869V66.389C39.3501 62.179 42.7641 58.764 46.9761 58.764H105.626C109.837 58.764 113.252 62.178 113.252 66.39V68.87Z" fill="#D3DEEA"/>
<path d="M113.252 66.7229C113.252 70.9339 109.837 74.3489 105.626 74.3489H46.9761C42.7641 74.3489 39.3501 70.9339 39.3501 66.7229V64.2429C39.3501 60.0319 42.7641 56.6169 46.9761 56.6169H105.626C109.837 56.6169 113.252 60.0319 113.252 64.2429V66.7229Z" fill="#F7FAFF"/>
<path d="M105.626 57.3831C109.415 57.3831 112.488 60.4561 112.488 64.2451V66.7251C112.488 70.5131 109.415 73.5861 105.626 73.5861H46.9758C43.1868 73.5861 40.1138 70.5131 40.1138 66.7241V64.2441C40.1138 60.4561 43.1868 57.3831 46.9758 57.3831H105.626V57.3831Z" stroke="#003B99" stroke-width="2.764" stroke-miterlimit="10" stroke-linecap="round"/>
<path d="M70.9842 67.1619L70.2442 68.2839L68.1222 66.8039L68.1952 69.2019H66.7902L66.8382 66.8529L64.7652 68.2759L64.0502 67.1539L66.3912 65.7389L64.0502 64.3159L64.7652 63.1779L66.8382 64.6179L66.7902 62.2679H68.1962L68.1472 64.6179L70.2452 63.1939L70.9852 64.3159L68.6192 65.7309L70.9852 67.1609L70.9842 67.1619ZM79.6422 67.1619L78.9022 68.2839L76.7802 66.8039L76.8532 69.2019H75.4472L75.4962 66.8529L73.4232 68.2759L72.7072 67.1539L75.0492 65.7389L72.7072 64.3159L73.4232 63.1779L75.4962 64.6179L75.4462 62.2679H76.8532L76.8052 64.6179L78.9022 63.1939L79.6422 64.3159L77.2762 65.7309L79.6422 67.1609V67.1619ZM62.3262 67.1619L61.5862 68.2839L59.4642 66.8039L59.5372 69.2019H58.1302L58.1802 66.8529L56.1062 68.2759L55.3912 67.1539L57.7322 65.7389L55.3912 64.3159L56.1062 63.1779L58.1792 64.6179L58.1302 62.2679H59.5372L59.4882 64.6179L61.5862 63.1939L62.3262 64.3159L59.9602 65.7309L62.3262 67.1609V67.1619ZM53.6592 67.1619L52.9192 68.2839L50.8132 66.8039L50.8872 69.2019H49.4802L49.5292 66.8529L47.4562 68.2759L46.7402 67.1539L49.0822 65.7389L46.7402 64.3159L47.4562 63.1779L49.5292 64.6179L49.4802 62.2679H50.8872L50.8372 64.6179L52.9352 63.1939L53.6752 64.3159L51.3092 65.7309L53.6592 67.1609V67.1619Z" fill="#9BC6F9"/>
<path d="M116.374 91.626H95.6102C94.3662 91.626 93.3662 90.65 93.3662 89.447V72.032C93.3662 70.829 94.3662 69.854 95.6102 69.854H116.374C117.618 69.854 118.618 70.829 118.618 72.032V89.447C118.618 90.65 117.61 91.626 116.374 91.626Z" fill="#E5EFFF"/>
<path d="M108.04 54.0081C108.04 54.0081 110.747 54.1871 112.991 56.3901C114.585 57.9501 115.365 60.1621 115.365 62.3981V68.5041C115.365 68.5041 121.561 67.6341 121.561 72.4391V90.3891C121.561 92.9431 119.495 95.0081 116.943 95.0081H96.796C94.252 95.0081 92.186 92.9431 92.186 90.3981L97.959 92.6501L118.479 91.9021L118.617 84.0161L118.138 72.0001L117.764 69.6741L112.934 69.8621L112.682 59.9511L108.04 54.0081Z" fill="#D3DEEA"/>
<path d="M99.4301 69.0581H102.431V61.1301L104.927 58.4391H107.04L109.154 60.6591L109.366 68.8451L112.935 68.8781L112.675 59.9431L110.423 56.6101L106.39 54.8781L103.374 55.3741L100.203 57.9591L99.0811 61.0161L99.4311 69.0561L99.4301 69.0581Z" fill="#E5EFFF"/>
<path d="M105.984 79.593C107.082 79.593 107.976 78.707 107.976 77.601C107.976 76.504 107.09 75.609 105.984 75.609C104.886 75.609 103.992 76.496 103.992 77.601C104 78.707 104.886 79.593 105.984 79.593Z" fill="white"/>
<path d="M7.69092 110.879H131.635H7.69092ZM135.707 110.879H136.398H135.707ZM140.479 110.879H154.813H140.479ZM112.374 69.439H109.634C109.325 69.439 109.073 69.187 109.073 68.878V61.804C109.073 60.105 107.691 58.715 105.983 58.715C104.284 58.715 102.894 60.097 102.894 61.805V68.878C102.894 69.186 102.642 69.438 102.333 69.438H99.5929C99.2839 69.438 99.0329 69.186 99.0329 68.878V61.804C99.0329 57.975 102.146 54.861 105.975 54.861C109.805 54.861 112.918 57.975 112.918 61.804V68.878C112.935 69.186 112.683 69.438 112.374 69.438V69.439ZM95.2199 92.3C94.0489 92.3 93.1059 91.35 93.1059 90.187V71.561C93.1059 70.391 94.0559 69.447 95.2189 69.447H116.756C117.927 69.447 118.87 70.398 118.87 71.561V90.187C118.87 91.357 117.918 92.301 116.756 92.301H95.2189L95.2199 92.3Z" stroke="#003B99" stroke-width="2.764" stroke-miterlimit="10" stroke-linecap="round"/>
<path d="M105.983 80.398V86.252M105.983 80.398C107.65 80.398 109.008 79.048 109.008 77.374C109.008 75.699 107.658 74.35 105.983 74.35C104.317 74.35 102.959 75.7 102.959 77.374C102.959 79.049 104.317 80.398 105.983 80.398Z" stroke="#003B99" stroke-width="2.764" stroke-miterlimit="10" stroke-linecap="round"/>
</svg>
