<svg width="157" height="113" viewBox="0 0 157 113" fill="none" xmlns="http://www.w3.org/2000/svg">
<path d="M153.824 108.519V58.464C153.824 49.95 149.405 42.048 142.16 37.636L93.932 8.23602C86.224 3.53802 76.559 3.53802 68.851 8.23602L20.622 37.645C13.386 42.056 8.95996 49.958 8.95996 58.472V108.528H153.825V108.519H153.824Z" fill="#F7FAFF"/>
<path d="M144.921 95.536H142.874V93.476C142.874 93.126 142.598 92.848 142.249 92.848C141.9 92.848 141.624 93.126 141.624 93.477V95.536H139.853C139.504 95.536 139.228 95.814 139.228 96.166C139.228 96.516 139.504 96.794 139.853 96.794H141.624V98.854C141.624 99.204 141.9 99.483 142.249 99.483C142.598 99.483 142.874 99.205 142.874 98.853V96.794H144.921C145.27 96.794 145.546 96.516 145.546 96.165C145.546 95.814 145.27 95.535 144.921 95.535V95.536Z" fill="#C1C1C1"/>
<path d="M90.0078 13.597C89.6588 13.597 89.3828 13.319 89.3828 12.967V7.87699C89.3828 7.52599 89.6588 7.24799 90.0078 7.24799C90.3578 7.24799 90.6338 7.52599 90.6338 7.87799V12.968C90.6338 13.311 90.3578 13.597 90.0078 13.597Z" fill="#9BC6F9"/>
<path d="M92.6401 10.909H87.5801C87.2301 10.909 86.9541 10.631 86.9541 10.279C86.9541 9.92903 87.2301 9.65002 87.5801 9.65002H92.6401C92.9891 9.65002 93.2651 9.92802 93.2651 10.28C93.2651 10.63 93.0211 10.909 92.6391 10.909H92.6401ZM147.309 69.886C147.065 69.886 146.862 69.715 146.822 69.469C146.229 66.266 145.888 65.882 142.663 65.286C142.42 65.253 142.249 65.041 142.249 64.796C142.249 64.55 142.42 64.346 142.663 64.306C145.847 63.709 146.229 63.366 146.822 60.122C146.854 59.877 147.065 59.705 147.309 59.705C147.553 59.705 147.756 59.877 147.796 60.122C148.389 63.325 148.73 63.709 151.955 64.305C152.199 64.338 152.369 64.55 152.369 64.795C152.369 65.041 152.199 65.245 151.955 65.285C148.771 65.882 148.389 66.225 147.796 69.469C147.764 69.706 147.553 69.886 147.309 69.886ZM144.921 64.755C146.204 65.205 146.862 65.866 147.309 67.157C147.756 65.866 148.422 65.204 149.697 64.755C148.414 64.305 147.756 63.635 147.309 62.353C146.862 63.676 146.204 64.338 144.921 64.755Z" fill="#9BC6F9"/>
<path d="M28.964 12.2C28.72 12.2 28.549 12.06 28.476 11.815C27.51 8.261 26.811 7.566 23.278 6.585C23.067 6.512 22.897 6.308 22.897 6.095C22.897 5.85 23.035 5.679 23.278 5.605C26.811 4.633 27.502 3.93 28.476 0.375C28.549 0.172 28.761 0 28.964 0C29.174 0 29.378 0.139 29.451 0.384C30.417 3.938 31.116 4.633 34.649 5.614C34.86 5.687 35.031 5.891 35.031 6.104C35.031 6.349 34.893 6.52 34.649 6.594C31.116 7.566 30.426 8.269 29.451 11.824C29.378 12.06 29.175 12.199 28.964 12.199V12.2ZM25.122 6.096C27.266 6.864 28.208 7.803 28.964 9.96C29.727 7.803 30.661 6.855 32.805 6.096C30.661 5.327 29.719 4.388 28.964 2.231C28.2 4.388 27.266 5.336 25.122 6.096ZM4.435 51.199H0.902C0.414 51.199 0 50.815 0 50.292C0 49.802 0.382 49.385 0.902 49.385H4.435C4.922 49.385 5.336 49.769 5.336 50.292C5.304 50.815 4.922 51.199 4.435 51.199ZM11.225 51.199H7.692C7.204 51.199 6.79 50.815 6.79 50.292C6.79 49.802 7.172 49.385 7.692 49.385H11.225C11.712 49.385 12.126 49.769 12.126 50.292C12.126 50.815 11.712 51.199 11.225 51.199ZM6.059 56.429C5.571 56.429 5.157 56.045 5.157 55.522V51.968C5.157 51.478 5.539 51.06 6.059 51.06C6.546 51.06 6.96 51.445 6.96 51.967V55.522C6.928 56.012 6.546 56.429 6.059 56.429ZM6.059 49.599C5.571 49.599 5.157 49.215 5.157 48.692V45.138C5.157 44.648 5.539 44.231 6.059 44.231C6.546 44.231 6.96 44.614 6.96 45.138V48.692C6.928 49.182 6.546 49.599 6.059 49.599Z" fill="#B3BAC5"/>
<path d="M119.44 74.253L96.1421 85.277L105.862 106.069L129.16 95.045L119.44 74.253Z" fill="#E5EFFF"/>
<path d="M103.085 64.845C103.085 64.845 105.611 63.848 108.575 64.894C110.679 65.637 112.328 67.312 113.27 69.339L115.869 74.895C115.869 74.895 121.1 71.455 123.146 75.827L130.781 92.152C131.869 94.473 130.879 97.235 128.572 98.33L110.362 106.95C108.064 108.037 105.319 107.048 104.238 104.728L110.411 104.311L128.645 94.849L125.412 87.618L119.873 76.889L118.549 74.936L114.261 77.175L109.818 68.269L103.085 64.845Z" fill="#D3DEEA"/>
<path d="M113.562 77.028L111.085 78.196C110.809 78.327 110.476 78.205 110.338 77.926L107.333 71.496C106.61 69.944 104.766 69.282 103.231 70.009C101.688 70.736 101.03 72.591 101.753 74.135L104.758 80.566C104.888 80.844 104.766 81.179 104.49 81.318L102.013 82.486C101.736 82.617 101.403 82.494 101.265 82.216L98.2599 75.786C96.6279 72.306 98.1219 68.138 101.582 66.496C105.042 64.853 109.184 66.356 110.817 69.838L113.822 76.268C113.968 76.562 113.846 76.898 113.562 77.028V77.028Z" stroke="#003B99" stroke-width="2.764" stroke-miterlimit="10" stroke-linecap="round"/>
<path d="M107.779 105.153C106.723 105.651 105.464 105.194 104.969 104.131L97.0502 87.193C96.5552 86.131 97.0102 84.864 98.0652 84.358L117.534 75.148C118.59 74.65 119.849 75.108 120.352 76.17L128.271 93.109C128.767 94.171 128.312 95.438 127.256 95.936L107.779 105.153V105.153Z" stroke="#003B99" stroke-width="2.764" stroke-miterlimit="10" stroke-linecap="round"/>
<path d="M112.449 89.725L114.943 95.052M112.45 89.725C113.96 89.015 114.602 87.2 113.895 85.689C113.189 84.169 111.386 83.523 109.883 84.234C108.372 84.945 107.731 86.759 108.437 88.271C109.144 89.782 110.947 90.444 112.45 89.725Z" stroke="#003B99" stroke-width="2.764" stroke-miterlimit="10" stroke-linecap="round"/>
<path d="M99.0398 18.441H51.0078V105.307H99.0398V18.441Z" fill="white"/>
<path d="M51.007 92.03H99.049M50.478 54.614V22.224C50.478 20.133 52.16 18.441 54.239 18.441H95.288C97.367 18.441 99.048 20.133 99.048 22.225V101.9C99.048 103.992 97.367 105.683 95.288 105.683H54.239C52.159 105.683 50.479 103.992 50.479 101.9V65.858L50.478 54.614ZM51.007 27.576H99.049H51.007Z" stroke="#003B99" stroke-width="2.764" stroke-miterlimit="10" stroke-linecap="round"/>
<path d="M74.5522 101.851C76.1852 101.851 77.5082 100.519 77.5082 98.877C77.5082 97.234 76.1852 95.902 74.5522 95.902C72.9192 95.902 71.5962 97.234 71.5962 98.877C71.5962 100.519 72.9192 101.851 74.5522 101.851Z" stroke="#003B99" stroke-width="2.764" stroke-miterlimit="10" stroke-linecap="round"/>
<path d="M66.5039 77.035C67.5029 77.035 68.3139 76.218 68.3139 75.213C68.3139 74.208 67.5029 73.391 66.5039 73.391C65.5039 73.391 64.6919 74.208 64.6919 75.213C64.7009 76.218 65.5049 77.035 66.5039 77.035Z" fill="#393E46"/>
<path d="M66.5031 76.774C67.3561 76.774 68.0551 76.079 68.0551 75.213C68.0551 74.355 67.3651 73.653 66.5031 73.653C65.6511 73.653 64.9531 74.347 64.9531 75.213C64.9601 76.079 65.6511 76.773 66.5031 76.773V76.774Z" stroke="#393E46" stroke-width="1.889"/>
<path d="M72.1899 77.035C73.1879 77.035 73.9999 76.218 73.9999 75.213C73.9999 74.208 73.1879 73.391 72.1899 73.391C71.1899 73.391 70.3779 74.208 70.3779 75.213C70.3779 76.218 71.1899 77.035 72.1889 77.035H72.1899Z" fill="#393E46"/>
<path d="M72.1892 76.774C73.0422 76.774 73.7402 76.079 73.7402 75.213C73.7402 74.355 73.0502 73.653 72.1892 73.653C71.3292 73.653 70.6382 74.347 70.6382 75.213C70.6382 76.079 71.3282 76.773 72.1892 76.773V76.774Z" stroke="#393E46" stroke-width="1.889"/>
<path d="M77.8662 77.035C78.8652 77.035 79.6772 76.218 79.6772 75.213C79.6772 74.208 78.8652 73.391 77.8662 73.391C76.8662 73.391 76.0552 74.208 76.0552 75.213C76.0632 76.218 76.8672 77.035 77.8652 77.035H77.8662Z" fill="#393E46"/>
<path d="M77.8669 76.774C78.7189 76.774 79.4179 76.079 79.4179 75.213C79.4179 74.355 78.7279 73.653 77.8669 73.653C77.0139 73.653 76.3149 74.347 76.3149 75.213C76.3239 76.079 77.0139 76.773 77.8669 76.773V76.774Z" stroke="#393E46" stroke-width="1.889"/>
<path d="M83.5522 77.035C84.5502 77.035 85.3622 76.218 85.3622 75.213C85.3622 74.208 84.5512 73.391 83.5522 73.391C82.5522 73.391 81.7402 74.208 81.7402 75.213C81.7402 76.218 82.5522 77.035 83.5522 77.035Z" fill="#393E46"/>
<path d="M83.551 76.774C84.404 76.774 85.103 76.079 85.103 75.213C85.103 74.355 84.413 73.653 83.551 73.653C82.698 73.653 82 74.347 82 75.213C82 76.079 82.69 76.773 83.551 76.773V76.774Z" stroke="#393E46" stroke-width="1.889"/>
<path d="M79.9289 55.375C79.4989 54.835 78.9789 54.378 78.3939 54.018C78.3119 50.358 78.1009 40.699 78.1579 39.891C78.1739 39.735 78.1579 39.58 78.1089 39.433C78.0609 39.286 77.9869 39.147 77.8819 39.033C77.5649 38.73 77.1509 38.55 76.7119 38.534C76.1919 38.51 74.0809 38.51 74.0559 38.91C73.9759 40.095 73.9909 40.373 73.9589 40.855C73.9099 41.59 75.0309 41.958 75.1769 42.391C75.2419 42.538 75.2669 42.693 75.2419 42.857C75.2179 43.012 75.1519 43.159 75.0469 43.282C74.7069 43.559 74.3409 43.821 73.9669 44.05C73.8209 44.189 73.7069 44.352 73.6259 44.54C73.5529 44.728 73.5119 44.932 73.5199 45.128C73.4799 45.292 73.4799 45.463 73.5199 45.627C73.5599 45.79 73.6339 45.945 73.7319 46.084C74.0479 46.452 75.0149 46.444 74.9659 47.195C74.9169 47.939 73.7719 47.833 73.3899 48.274C73.2279 48.535 73.1299 48.83 73.0899 49.14C73.0569 49.45 73.0899 49.761 73.1869 50.047C73.3569 50.341 74.4629 50.488 74.7069 50.921C74.7959 51.207 74.7709 51.526 74.6409 51.796C74.4869 52.008 73.3659 52.458 73.2109 52.67C73.0489 53.013 72.9359 53.373 72.8789 53.74C72.0179 54.043 71.2379 54.525 70.5799 55.154C67.7699 57.728 67.4449 61.96 69.8499 64.616C72.2529 67.272 76.8419 67.778 79.6039 65.156C82.6409 62.296 82.3239 58.03 79.9289 55.375ZM73.3169 63.145C73.0739 62.892 72.9109 62.565 72.8539 62.214C72.7979 61.862 72.8379 61.503 72.9839 61.184C73.1309 60.857 73.3659 60.588 73.6669 60.4C73.9669 60.212 74.3169 60.122 74.6649 60.13C75.0149 60.138 75.3549 60.26 75.6479 60.465C75.9329 60.669 76.1519 60.964 76.2739 61.299C76.3949 61.634 76.4119 61.993 76.3309 62.336C76.2489 62.679 76.0619 62.99 75.8029 63.236C75.6329 63.39 75.4369 63.513 75.2179 63.595C74.9979 63.676 74.7709 63.717 74.5439 63.709C74.3159 63.701 74.0889 63.644 73.8779 63.554C73.6659 63.447 73.4799 63.317 73.3179 63.145H73.3169Z" fill="#9BC6F9"/>
<path opacity="0.13" d="M95.207 100.847V23.255C95.207 20.787 92.186 18.785 88.498 18.785H92.567C96.255 18.785 99.227 20.779 99.227 23.255V100.847C99.227 103.314 96.247 105.316 92.567 105.316H88.498C92.178 105.275 95.207 103.282 95.207 100.847Z" fill="#003B99"/>
<path d="M140.56 110.871H154.879M80.6999 110.871H81.3899H80.6999ZM73.8859 110.871H88.2049H73.8859ZM7.90186 110.871H131.723H7.90186ZM135.792 110.871H136.482H135.792Z" stroke="#003B99" stroke-width="2.764" stroke-miterlimit="10" stroke-linecap="round"/>
<path opacity="0.13" d="M54.0198 100.862V23.597C54.0198 21.137 56.9998 19.152 60.6228 19.152H56.6268C52.9968 19.152 50.0718 21.138 50.0718 23.597V100.862C50.0718 103.322 53.0038 105.307 56.6268 105.307H60.6228C56.9928 105.283 54.0198 103.289 54.0198 100.862Z" fill="#003B99"/>
<path d="M50.478 61.25V59.705" stroke="#003B99" stroke-width="2.764" stroke-miterlimit="10" stroke-linecap="round"/>
</svg>
