<svg width="13" height="18" viewBox="0 0 13 18" fill="none" xmlns="http://www.w3.org/2000/svg">
<path d="M11.6324 7.32209H10.5971V4.85592C10.5971 2.39346 8.59626 0.390076 6.13464 0.390076C3.673 0.390076 1.6722 2.39477 1.6722 4.85884V7.32209H0.648328C0.293559 7.32209 0 7.60387 0 7.95863V15.4098C0 16.2953 0.726358 17.015 1.61185 17.015H10.6689C11.5544 17.015 12.2693 16.2953 12.2693 15.4098V7.95863C12.2693 7.60387 11.9872 7.32209 11.6324 7.32209ZM2.95552 4.85884C2.95552 3.10314 4.3814 1.67477 6.13464 1.67477C7.88788 1.67477 9.31377 3.10182 9.31377 4.85592V7.32209H2.95552V4.85884ZM10.986 15.4098C10.986 15.587 10.846 15.7317 10.6689 15.7317H1.61185C1.43475 15.7317 1.28332 15.5869 1.28332 15.4098V8.60541H10.986V15.4098Z" fill="black"/>
<path d="M6.13482 14.093C6.48959 14.093 6.77648 13.8055 6.77648 13.4507V11.1382C6.77648 10.7835 6.48958 10.4959 6.13482 10.4959C5.78006 10.4959 5.49316 10.7835 5.49316 11.1382V13.4507C5.49316 13.8055 5.78005 14.093 6.13482 14.093Z" fill="black"/>
</svg>
