<svg width="18" height="24" viewBox="0 0 18 24" fill="none" xmlns="http://www.w3.org/2000/svg">
<g clip-path="url(#clip0_2541_1287)">
<path d="M16.0888 22.8597C15.7337 23.1863 15.4142 23.4914 15.0888 23.7859C14.7811 24.0643 14.568 24.0643 14.2544 23.7859C13.929 23.4914 13.6035 23.1916 13.2485 22.8597C12.9112 23.1756 12.5976 23.4647 12.2781 23.7538C11.929 24.0696 11.7337 24.0696 11.3846 23.7538C11.071 23.47 10.7633 23.1809 10.426 22.8651C10.1006 23.1595 9.79882 23.4326 9.49112 23.7109C9.07101 24.091 8.90532 24.091 8.49112 23.7109C8.19527 23.4379 7.90533 23.1595 7.57396 22.8544C7.22485 23.1756 6.91124 23.47 6.59763 23.7591C6.24852 24.075 6.05325 24.075 5.70414 23.7591C5.39053 23.4754 5.08284 23.1863 4.7574 22.8811C4.67456 22.9454 4.60355 22.9936 4.54438 23.0471C4.2426 23.3148 3.95858 23.6039 3.63314 23.8501C3.51479 23.9358 3.29586 23.9572 3.13018 23.9358C2.91716 23.909 2.84615 23.7377 2.84024 23.5557C2.84024 23.4861 2.84024 23.4111 2.84024 23.3415C2.84024 19.4174 2.84024 15.4932 2.84615 11.5691C2.84615 11.3978 2.80473 11.2693 2.66272 11.1461C2.4142 10.932 2.18343 10.6964 1.90533 10.4395C1.54438 10.7714 1.2071 11.0819 0.869822 11.3924C0.721893 11.5262 0.568047 11.6172 0.343195 11.5584C0.0710059 11.4781 0 11.296 0 11.0605C0.00591716 9.8131 0 8.56037 0 7.31299C0 5.49278 0 3.67257 0 1.85236C0 0.733463 0.792899 0.0107326 2.02959 0.0107326C6.66864 0.0107326 11.3018 0.0321468 15.9349 2.54334e-05C17.0828 -0.00532813 18 0.835181 18 1.86306C17.9763 9.04219 17.9882 16.2213 17.9882 23.4058C17.9882 23.4433 17.9882 23.4754 17.9882 23.5129C18.0059 23.727 17.8876 23.8715 17.6805 23.9572C17.4734 24.0482 17.2959 23.9733 17.1479 23.8341C16.8106 23.5236 16.4734 23.2131 16.0888 22.8597ZM3.61538 0.824473C3.67456 1.27417 3.78106 1.6971 3.78106 2.12539C3.7929 8.80128 3.78698 15.4718 3.78698 22.1477C3.78698 22.2548 3.78698 22.3672 3.78698 22.5492C3.99408 22.3565 4.13609 22.2226 4.28402 22.0888C4.63905 21.7729 4.8284 21.7676 5.17751 22.0888C5.49704 22.3779 5.81065 22.6723 6.15976 22.9936C6.48521 22.6884 6.77515 22.41 7.07101 22.137C7.49112 21.7515 7.65089 21.7515 8.07101 22.1316C8.37278 22.4047 8.67456 22.6831 9 22.9829C9.3432 22.667 9.64497 22.3725 9.95858 22.0888C10.3077 21.7676 10.503 21.7676 10.8521 22.0835C11.1716 22.3725 11.4793 22.667 11.8284 22.9936C12.1657 22.6777 12.4615 22.394 12.7633 22.1156C13.1598 21.7515 13.3314 21.7515 13.7219 22.1102C14.0296 22.394 14.3373 22.6777 14.6627 22.9775C15.0296 22.6402 15.3609 22.3297 15.6923 22.0299C15.9704 21.7837 16.1834 21.7837 16.4615 22.0246C16.6331 22.1745 16.7929 22.3404 16.9586 22.501C16.9822 22.485 17.0059 22.4743 17.0296 22.4582C17.0296 22.3458 17.0296 22.2334 17.0296 22.1209C17.0296 15.3701 17.0296 8.6139 17.0296 1.86306C17.0296 1.20458 16.6509 0.867302 15.9112 0.867302C12.2604 0.851241 8.61538 0.840534 4.9645 0.824473C4.50888 0.824473 4.04142 0.824473 3.61538 0.824473ZM2.75148 10.0915C2.78106 10.0754 2.81065 10.054 2.84024 10.0379C2.84024 9.95229 2.84024 9.86128 2.84024 9.77562C2.84024 8.50148 2.84024 7.22733 2.84024 5.95318C2.84024 4.57196 2.84024 3.19075 2.84024 1.80953C2.84024 1.47225 2.71598 1.19922 2.40237 1.01185C2.09467 0.829827 1.76923 0.824473 1.4497 0.98508C1.10059 1.16175 0.940828 1.43478 0.940828 1.79882C0.946745 4.49166 0.940828 7.1845 0.940828 9.87199C0.940828 9.93088 0.940828 9.98977 0.940828 10.0433C0.976331 10.0647 1.01183 10.0808 1.04142 10.1022C1.11243 10.0112 1.17751 9.90946 1.26035 9.82381C1.3432 9.73815 1.43787 9.65784 1.53254 9.57754C1.78106 9.37411 1.99408 9.36875 2.23669 9.57754C2.42604 9.73815 2.5858 9.92017 2.75148 10.0915Z" fill="black"/>
<path d="M3.61536 0.824463C4.04139 0.824463 4.50885 0.824463 4.9763 0.824463C8.62719 0.840524 12.2722 0.856584 15.923 0.867291C16.6627 0.872645 17.0414 1.20457 17.0414 1.86305C17.0414 8.61389 17.0414 15.3701 17.0414 22.1209C17.0414 22.2333 17.0414 22.3458 17.0414 22.4582C17.0177 22.4743 16.994 22.485 16.9704 22.501C16.8047 22.3404 16.6509 22.1745 16.4733 22.0246C16.1952 21.7836 15.9822 21.7836 15.7041 22.0299C15.3668 22.3297 15.0414 22.6402 14.6745 22.9775C14.3491 22.6777 14.0414 22.3886 13.7337 22.1102C13.3432 21.7569 13.1716 21.7569 12.7751 22.1156C12.4733 22.3939 12.1775 22.6777 11.8402 22.9935C11.4911 22.667 11.1775 22.3725 10.8639 22.0834C10.5148 21.7676 10.3195 21.7676 9.97038 22.0888C9.65677 22.3725 9.34908 22.6616 9.0118 22.9828C8.68636 22.683 8.38459 22.41 8.08281 22.1316C7.66269 21.7515 7.50293 21.7515 7.08281 22.137C6.78695 22.41 6.49701 22.6884 6.17157 22.9935C5.82246 22.667 5.50885 22.3779 5.18932 22.0888C4.84021 21.7729 4.64494 21.7729 4.29583 22.0888C4.1479 22.2226 4.00589 22.3565 3.79879 22.5492C3.79879 22.3672 3.79879 22.2601 3.79879 22.1477C3.79879 15.4772 3.80471 8.80126 3.79287 2.13073C3.78104 1.70245 3.67453 1.27416 3.61536 0.824463ZM11.3609 17.1582C11.3609 17.7364 11.355 18.2931 11.3609 18.8445C11.3668 19.1229 11.5562 19.2835 11.8402 19.2782C12.1124 19.2728 12.284 19.1176 12.3017 18.8499C12.3077 18.7161 12.3017 18.5822 12.3017 18.4484C12.3017 18.0147 12.3017 17.5811 12.3017 17.1742C12.7988 17.0511 13.1124 17.1903 13.3846 17.5436C13.7751 18.0469 14.2248 18.5073 14.6568 18.9891C14.7219 19.064 14.7988 19.1336 14.8875 19.1925C15.071 19.321 15.2899 19.321 15.4201 19.1711C15.5266 19.0533 15.5562 18.8552 15.5621 18.6946C15.5621 18.609 15.4497 18.5126 15.3787 18.4323C14.9941 17.9933 14.6094 17.5597 14.213 17.11C14.3254 17.0779 14.4023 17.0565 14.4733 17.035C15.2189 16.8155 15.7041 16.1463 15.6035 15.4664C15.5029 14.7544 14.8402 14.1655 14.0532 14.1495C13 14.1281 11.9408 14.1388 10.8875 14.1441C10.5799 14.1441 10.4023 14.3208 10.4083 14.5778C10.4142 14.824 10.5858 14.9846 10.8757 14.9953C11.0296 15.0007 11.1834 14.9953 11.3432 14.9953C11.3432 15.4397 11.3432 15.8519 11.3432 16.2641C11.071 16.3177 10.8816 16.4354 10.8816 16.7085C10.8935 16.9869 11.0769 17.1046 11.3609 17.1582ZM10.4497 3.86528C10.0059 3.86528 9.5621 3.86528 9.11831 3.86528C7.99405 3.86528 6.86979 3.86528 5.75145 3.86528C5.36684 3.86528 5.15382 4.07943 5.21891 4.38458C5.27216 4.62014 5.44376 4.72185 5.8047 4.72185C8.87571 4.72185 11.9526 4.72185 15.0236 4.72185C15.0828 4.72185 15.142 4.72721 15.2012 4.7165C15.5148 4.67902 15.6982 4.42205 15.5976 4.14902C15.5029 3.90276 15.284 3.85993 15.0296 3.85993C13.5029 3.86528 11.9763 3.86528 10.4497 3.86528ZM10.3846 3.00871C11.1538 3.00871 11.923 3.00871 12.6864 3.00871C13.0532 3.00871 13.2426 2.86417 13.2485 2.59114C13.2544 2.3074 13.0591 2.15215 12.6804 2.15215C11.1657 2.15215 9.65086 2.15215 8.13015 2.15215C7.76328 2.15215 7.57394 2.29669 7.56802 2.56972C7.5621 2.85346 7.75737 3.00871 8.13015 3.00871C8.88754 3.01407 9.63902 3.00871 10.3846 3.00871ZM7.84021 6.00671C7.15382 6.00671 6.46151 6.00671 5.77512 6.00671C5.39642 6.00671 5.20115 6.16196 5.20707 6.4457C5.21299 6.71873 5.40234 6.86328 5.7692 6.86328C7.13015 6.86328 8.48518 6.86328 9.84612 6.86328C10.2248 6.86328 10.4201 6.70802 10.4142 6.42428C10.4083 6.15125 10.2189 6.01206 9.85204 6.00671C9.1834 6.00671 8.51476 6.00671 7.84021 6.00671ZM7.78104 8.57641C8.46743 8.57641 9.15973 8.57641 9.84612 8.57641C10.2248 8.57641 10.4201 8.41581 10.4083 8.13742C10.4023 7.86975 10.213 7.7252 9.84612 7.7252C8.48518 7.7252 7.13015 7.7252 5.7692 7.7252C5.3905 7.7252 5.19524 7.88045 5.20707 8.16419C5.21299 8.43722 5.40234 8.57641 5.7692 8.58177C6.44376 8.57641 7.1124 8.57641 7.78104 8.57641ZM7.8047 10.2896C8.49109 10.2896 9.1834 10.2896 9.86979 10.2896C10.2248 10.2896 10.4142 10.1289 10.4142 9.85592C10.4083 9.58288 10.2189 9.43298 9.85796 9.43298C8.4911 9.43298 7.12423 9.43298 5.75145 9.43298C5.39642 9.43298 5.20707 9.58824 5.20707 9.86662C5.21299 10.1397 5.39642 10.2896 5.76328 10.2896C6.44376 10.2896 7.12423 10.2896 7.8047 10.2896ZM13.5207 11.1461C12.9881 11.1461 12.4556 11.1461 11.929 11.1461C11.5503 11.1461 11.355 11.3014 11.3668 11.5851C11.3728 11.8581 11.5621 12.0027 11.929 12.0027C12.9704 12.0027 14.0177 12.0027 15.0591 12.0027C15.4378 12.0027 15.6331 11.8474 15.6272 11.5637C15.6213 11.2907 15.4319 11.1515 15.0651 11.1461C14.5443 11.1461 14.0355 11.1461 13.5207 11.1461ZM14.6982 6.01206C14.5207 6.01206 14.3432 6.00135 14.1656 6.01206C13.8935 6.02812 13.7337 6.18873 13.7278 6.42428C13.7219 6.65984 13.8816 6.84186 14.1479 6.85257C14.5029 6.86863 14.858 6.86863 15.2071 6.85257C15.4674 6.83651 15.6094 6.68126 15.6154 6.44034C15.6272 6.20479 15.4615 6.02812 15.1952 6.00671C15.0355 6.00135 14.8639 6.01206 14.6982 6.01206ZM14.6686 8.57641C14.8343 8.57641 15.0059 8.58177 15.1716 8.57641C15.4556 8.56035 15.6272 8.39439 15.6213 8.14813C15.6154 7.90187 15.4438 7.73591 15.1538 7.73055C14.8284 7.71985 14.5029 7.71985 14.1834 7.73055C13.8994 7.74126 13.7278 7.91257 13.7337 8.15884C13.7396 8.4051 13.9053 8.56571 14.2012 8.57641C14.3491 8.58177 14.5088 8.57641 14.6686 8.57641ZM14.6745 10.2896C14.8402 10.2896 15.0118 10.3003 15.1775 10.2896C15.4615 10.2735 15.6331 10.1022 15.6213 9.85592C15.6154 9.62036 15.4497 9.4544 15.1775 9.44369C14.8461 9.43298 14.5088 9.43298 14.1775 9.44369C13.9053 9.4544 13.7396 9.615 13.7337 9.85056C13.7278 10.0968 13.8935 10.2735 14.1775 10.2896C14.3372 10.2949 14.5029 10.2896 14.6745 10.2896Z" fill="white"/>
<path d="M2.75145 10.0916C2.57985 9.92031 2.42601 9.73829 2.24257 9.57768C2.00589 9.36889 1.78695 9.37425 1.53843 9.57768C1.44376 9.65798 1.34908 9.73829 1.26624 9.82395C1.1834 9.9096 1.11831 10.0113 1.04731 10.1023C1.01181 10.0809 0.976302 10.0649 0.946716 10.0434C0.946716 9.98455 0.946716 9.92566 0.946716 9.87213C0.946716 7.17929 0.946716 4.48645 0.946716 1.79896C0.946716 1.43492 1.10648 1.16189 1.45559 0.985222C1.77512 0.824616 2.09465 0.824616 2.40825 1.01199C2.72186 1.19936 2.85204 1.4724 2.84612 1.80967C2.84021 3.19089 2.84612 4.57211 2.84612 5.95332C2.84612 7.22747 2.84612 8.50162 2.84612 9.77576C2.84612 9.86142 2.84612 9.95243 2.84612 10.0381C2.81062 10.0541 2.78104 10.0756 2.75145 10.0916Z" fill="white"/>
<path d="M11.361 17.1582C11.0769 17.1047 10.8876 16.9816 10.8876 16.7085C10.8876 16.4355 11.0769 16.3177 11.3491 16.2642C11.3491 15.852 11.3491 15.4451 11.3491 14.9954C11.1894 14.9954 11.0355 15.0007 10.8817 14.9954C10.5858 14.9793 10.4142 14.8241 10.4142 14.5778C10.4083 14.3208 10.5858 14.1442 10.8935 14.1442C11.9467 14.1388 13.0059 14.1281 14.0592 14.1495C14.8402 14.1656 15.503 14.7545 15.6095 15.4665C15.7041 16.1464 15.2249 16.821 14.4793 17.0351C14.4024 17.0565 14.3314 17.0779 14.2189 17.11C14.6154 17.5597 15 17.9934 15.3846 18.4324C15.4556 18.518 15.574 18.609 15.568 18.6947C15.5621 18.8553 15.5325 19.0534 15.426 19.1712C15.2959 19.3211 15.071 19.3157 14.8935 19.1926C14.8107 19.1337 14.7337 19.0641 14.6627 18.9891C14.2367 18.5127 13.7811 18.0469 13.3905 17.5437C13.1183 17.1903 12.8047 17.0512 12.3077 17.1743C12.3077 17.5865 12.3077 18.0201 12.3077 18.4484C12.3077 18.5823 12.3136 18.7161 12.3077 18.8499C12.2899 19.1176 12.1183 19.2729 11.8462 19.2782C11.5621 19.2836 11.3728 19.123 11.3669 18.8446C11.355 18.2932 11.361 17.7418 11.361 17.1582ZM12.3254 15.0061C12.3254 15.4504 12.3254 15.8573 12.3254 16.2856C12.8994 16.2856 13.4615 16.3017 14.0178 16.2802C14.3905 16.2695 14.6805 15.9537 14.6686 15.6325C14.6627 15.322 14.3728 15.0222 14.0178 15.0115C13.4615 14.99 12.8994 15.0061 12.3254 15.0061Z" fill="black"/>
<path d="M10.4497 3.86523C11.9763 3.86523 13.503 3.86523 15.0296 3.86523C15.284 3.86523 15.503 3.90271 15.5976 4.15433C15.6982 4.42736 15.5148 4.68433 15.2012 4.7218C15.142 4.72716 15.0828 4.72716 15.0237 4.72716C11.9527 4.72716 8.87574 4.72716 5.80474 4.72716C5.44971 4.72716 5.27219 4.62009 5.21894 4.38988C5.15385 4.08473 5.36687 3.87594 5.75148 3.87059C6.87574 3.86523 8 3.87059 9.11835 3.87059C9.56213 3.86523 10.0059 3.86523 10.4497 3.86523Z" fill="black"/>
<path d="M10.3846 3.00867C9.63902 3.00867 8.88754 3.00867 8.14198 3.00867C7.76329 3.00867 7.56802 2.85342 7.57985 2.56968C7.58577 2.29665 7.77512 2.15745 8.14198 2.1521C9.65677 2.1521 11.1716 2.1521 12.6923 2.1521C13.071 2.1521 13.2662 2.30735 13.2603 2.59109C13.2544 2.86412 13.0651 3.00332 12.6982 3.00867C11.923 3.01402 11.1538 3.00867 10.3846 3.00867Z" fill="black"/>
<path d="M7.84023 6.00684C8.50887 6.00684 9.17751 6.00684 9.84615 6.00684C10.213 6.00684 10.4024 6.15138 10.4083 6.42441C10.4142 6.70815 10.2189 6.86341 9.84023 6.86341C8.47929 6.86341 7.12426 6.86341 5.76331 6.86341C5.39645 6.86341 5.2071 6.71886 5.20118 6.44583C5.19526 6.16209 5.39053 6.00684 5.76923 6.00684C6.46745 6.00684 7.15384 6.00684 7.84023 6.00684Z" fill="black"/>
<path d="M7.78107 8.57654C7.11243 8.57654 6.44379 8.57654 5.77515 8.57654C5.40829 8.57654 5.21894 8.43199 5.21302 8.15896C5.2071 7.87522 5.40237 7.71997 5.77515 7.71997C7.1361 7.71997 8.49113 7.71997 9.85207 7.71997C10.2189 7.71997 10.4083 7.86452 10.4142 8.13219C10.4201 8.41593 10.2249 8.57119 9.85207 8.57119C9.15977 8.57654 8.46746 8.57654 7.78107 8.57654Z" fill="black"/>
<path d="M7.80474 10.2897C7.12427 10.2897 6.44379 10.2897 5.76924 10.2897C5.40829 10.2897 5.21894 10.1398 5.21303 9.86674C5.20711 9.59371 5.39646 9.43311 5.7574 9.43311C7.12427 9.43311 8.49113 9.43311 9.86391 9.43311C10.2249 9.43311 10.4142 9.58301 10.4201 9.85604C10.426 10.1291 10.2308 10.2897 9.87575 10.2897C9.18344 10.2897 8.49113 10.2897 7.80474 10.2897Z" fill="black"/>
<path d="M13.5207 11.1462C14.0296 11.1462 14.5444 11.1462 15.0533 11.1462C15.4201 11.1462 15.6095 11.2908 15.6154 11.5638C15.6213 11.8476 15.4261 12.0028 15.0474 12.0028C14.0059 12.0028 12.9586 12.0028 11.9172 12.0028C11.5503 12.0028 11.361 11.8583 11.3551 11.5852C11.3491 11.3015 11.5444 11.1462 11.9172 11.1462C12.4616 11.1462 12.9882 11.1462 13.5207 11.1462Z" fill="black"/>
<path d="M14.6982 6.01204C14.8639 6.01204 15.0355 6.00133 15.2012 6.01739C15.4675 6.03881 15.6272 6.21012 15.6213 6.45103C15.6095 6.68659 15.4734 6.8472 15.213 6.86326C14.858 6.88467 14.503 6.87932 14.1539 6.86326C13.8876 6.85255 13.7278 6.67053 13.7337 6.43497C13.7397 6.19942 13.8994 6.03881 14.1716 6.02275C14.3432 6.00133 14.5207 6.01204 14.6982 6.01204Z" fill="black"/>
<path d="M14.6686 8.57655C14.5089 8.57655 14.355 8.5819 14.1953 8.57655C13.9053 8.56049 13.7337 8.39988 13.7278 8.15897C13.7219 7.91271 13.8935 7.74139 14.1775 7.73069C14.503 7.71998 14.8284 7.71998 15.1479 7.73069C15.4379 7.74139 15.6095 7.902 15.6154 8.14826C15.6213 8.39453 15.4497 8.56049 15.1657 8.57655C15 8.5819 14.8343 8.57655 14.6686 8.57655Z" fill="black"/>
<path d="M14.6746 10.2897C14.5089 10.2897 14.3373 10.3004 14.1716 10.2897C13.8876 10.2736 13.7219 10.097 13.7278 9.85069C13.7337 9.61514 13.8994 9.45453 14.1716 9.44382C14.503 9.43311 14.8402 9.43311 15.1716 9.44382C15.4438 9.45453 15.6095 9.62049 15.6154 9.85605C15.6213 10.1023 15.4556 10.2736 15.1716 10.2897C15.0059 10.295 14.8402 10.2897 14.6746 10.2897Z" fill="black"/>
<path d="M12.3254 15.0062C12.8994 15.0062 13.4615 14.9955 14.0177 15.0115C14.3787 15.0222 14.6627 15.3167 14.6686 15.6325C14.6745 15.9538 14.3846 16.2696 14.0177 16.2803C13.4615 16.3017 12.8994 16.2857 12.3254 16.2857C12.3254 15.8574 12.3254 15.4505 12.3254 15.0062Z" fill="white"/>
</g>
<defs>
<clipPath id="clip0_2541_1287">
<rect width="18" height="24" fill="white"/>
</clipPath>
</defs>
</svg>
