<svg width="32" height="32" viewBox="0 0 32 32" fill="none" xmlns="http://www.w3.org/2000/svg">
<path d="M16 32C12.8355 32 9.74207 31.0616 7.11088 29.3035C4.4797 27.5454 2.42894 25.0466 1.21793 22.1229C0.00693258 19.1993 -0.309921 15.9823 0.307443 12.8786C0.924806 9.77487 2.44866 6.92394 4.6863 4.6863C6.92394 2.44866 9.77487 0.924806 12.8786 0.307443C15.9823 -0.309921 19.1993 0.00693258 22.1229 1.21793C25.0466 2.42894 27.5454 4.4797 29.3035 7.11088C31.0616 9.74207 32 12.8355 32 16C32 20.2435 30.3143 24.3131 27.3137 27.3137C24.3131 30.3143 20.2435 32 16 32ZM16 2.13334C13.2574 2.13334 10.5765 2.94661 8.2961 4.47029C6.01574 5.99398 4.23841 8.15966 3.18888 10.6935C2.13934 13.2273 1.86474 16.0154 2.39978 18.7053C2.93483 21.3951 4.2555 23.8659 6.19479 25.8052C8.13408 27.7445 10.6049 29.0652 13.2948 29.6002C15.9846 30.1353 18.7727 29.8607 21.3065 28.8111C23.8404 27.7616 26.006 25.9843 27.5297 23.7039C29.0534 21.4236 29.8667 18.7426 29.8667 16C29.8667 14.179 29.508 12.3758 28.8111 10.6935C28.1143 9.01108 27.0929 7.48243 25.8052 6.19479C24.5176 4.90715 22.9889 3.88574 21.3065 3.18888C19.6242 2.49201 17.821 2.13334 16 2.13334ZM16 16V4.26667C19.1119 4.26667 22.0963 5.50286 24.2967 7.70329C26.4972 9.90371 27.7333 12.8881 27.7333 16H16Z" fill="#FBB142"/>
</svg>
