<svg width="46" height="46" viewBox="0 0 46 46" fill="none" xmlns="http://www.w3.org/2000/svg">
<path d="M23 25.875C30.1426 25.875 35.9375 20.0801 35.9375 12.9375C35.9375 5.79492 30.1426 0 23 0C15.8574 0 10.0625 5.79492 10.0625 12.9375C10.0625 20.0801 15.8574 25.875 23 25.875ZM34.5 28.75H29.5496C27.5551 29.6664 25.3359 30.1875 23 30.1875C20.6641 30.1875 18.4539 29.6664 16.4504 28.75H11.5C5.14805 28.75 0 33.898 0 40.25V41.6875C0 44.0684 1.93164 46 4.3125 46H41.6875C44.0684 46 46 44.0684 46 41.6875V40.25C46 33.898 40.852 28.75 34.5 28.75Z" fill="#282866"/>
</svg>
